<?xml version="1.0" encoding="utf-8" standalone="no"?>
<!DOCTYPE svg PUBLIC "-//W3C//DTD SVG 1.1//EN"
  "http://www.w3.org/Graphics/SVG/1.1/DTD/svg11.dtd">
<svg xmlns:xlink="http://www.w3.org/1999/xlink" width="406.940312pt" height="325.986375pt" viewBox="0 0 406.940312 325.986375" xmlns="http://www.w3.org/2000/svg" version="1.1">
 <metadata>
  <rdf:RDF xmlns:dc="http://purl.org/dc/elements/1.1/" xmlns:cc="http://creativecommons.org/ns#" xmlns:rdf="http://www.w3.org/1999/02/22-rdf-syntax-ns#">
   <cc:Work>
    <dc:type rdf:resource="http://purl.org/dc/dcmitype/StillImage"/>
    <dc:date>2025-04-09T18:44:29.199308</dc:date>
    <dc:format>image/svg+xml</dc:format>
    <dc:creator>
     <cc:Agent>
      <dc:title>Matplotlib v3.10.0, https://matplotlib.org/</dc:title>
     </cc:Agent>
    </dc:creator>
   </cc:Work>
  </rdf:RDF>
 </metadata>
 <defs>
  <style type="text/css">*{stroke-linejoin: round; stroke-linecap: butt}</style>
 </defs>
 <g id="figure_1">
  <g id="patch_1">
   <path d="M 0 325.986375 
L 406.940312 325.986375 
L 406.940312 0 
L 0 0 
z
" style="fill: #ffffff"/>
  </g>
  <g id="axes_1">
   <g id="patch_2">
    <path d="M 42.620313 288.430125 
L 399.740313 288.430125 
L 399.740313 22.318125 
L 42.620313 22.318125 
z
" style="fill: #ffffff"/>
   </g>
   <g id="PathCollection_1">
    <defs>
     <path id="mf1e8a6656f" d="M 0 3 
C 0.795609 3 1.55874 2.683901 2.12132 2.12132 
C 2.683901 1.55874 3 0.795609 3 0 
C 3 -0.795609 2.683901 -1.55874 2.12132 -2.12132 
C 1.55874 -2.683901 0.795609 -3 0 -3 
C -0.795609 -3 -1.55874 -2.683901 -2.12132 -2.12132 
C -2.683901 -1.55874 -3 -0.795609 -3 0 
C -3 0.795609 -2.683901 1.55874 -2.12132 2.12132 
C -1.55874 2.683901 -0.795609 3 0 3 
z
" style="stroke: #ff0000"/>
    </defs>
    <g clip-path="url(#p1c5e06617d)">
     <use xlink:href="#mf1e8a6656f" x="223.327667" y="227.959887" style="fill: #ff0000; stroke: #ff0000"/>
     <use xlink:href="#mf1e8a6656f" x="313.594325" y="224.385687" style="fill: #ff0000; stroke: #ff0000"/>
     <use xlink:href="#mf1e8a6656f" x="208.281998" y="141.150121" style="fill: #ff0000; stroke: #ff0000"/>
     <use xlink:href="#mf1e8a6656f" x="162.056583" y="239.791003" style="fill: #ff0000; stroke: #ff0000"/>
     <use xlink:href="#mf1e8a6656f" x="211.820599" y="227.914508" style="fill: #ff0000; stroke: #ff0000"/>
     <use xlink:href="#mf1e8a6656f" x="149.192575" y="222.243489" style="fill: #ff0000; stroke: #ff0000"/>
     <use xlink:href="#mf1e8a6656f" x="187.028681" y="185.568304" style="fill: #ff0000; stroke: #ff0000"/>
     <use xlink:href="#mf1e8a6656f" x="127.776599" y="244.715628" style="fill: #ff0000; stroke: #ff0000"/>
     <use xlink:href="#mf1e8a6656f" x="255.548164" y="128.680035" style="fill: #ff0000; stroke: #ff0000"/>
     <use xlink:href="#mf1e8a6656f" x="134.74592" y="183.691057" style="fill: #ff0000; stroke: #ff0000"/>
     <use xlink:href="#mf1e8a6656f" x="158.818239" y="251.824016" style="fill: #ff0000; stroke: #ff0000"/>
     <use xlink:href="#mf1e8a6656f" x="163.751318" y="232.117542" style="fill: #ff0000; stroke: #ff0000"/>
     <use xlink:href="#mf1e8a6656f" x="248.517947" y="180.6252" style="fill: #ff0000; stroke: #ff0000"/>
     <use xlink:href="#mf1e8a6656f" x="205.992347" y="229.43174" style="fill: #ff0000; stroke: #ff0000"/>
     <use xlink:href="#mf1e8a6656f" x="203.458158" y="217.754253" style="fill: #ff0000; stroke: #ff0000"/>
     <use xlink:href="#mf1e8a6656f" x="239.290193" y="241.602874" style="fill: #ff0000; stroke: #ff0000"/>
     <use xlink:href="#mf1e8a6656f" x="203.027875" y="217.533624" style="fill: #ff0000; stroke: #ff0000"/>
     <use xlink:href="#mf1e8a6656f" x="200.935693" y="201.640995" style="fill: #ff0000; stroke: #ff0000"/>
     <use xlink:href="#mf1e8a6656f" x="212.276885" y="152.385342" style="fill: #ff0000; stroke: #ff0000"/>
     <use xlink:href="#mf1e8a6656f" x="199.367349" y="142.100581" style="fill: #ff0000; stroke: #ff0000"/>
     <use xlink:href="#mf1e8a6656f" x="189.432227" y="234.623061" style="fill: #ff0000; stroke: #ff0000"/>
     <use xlink:href="#mf1e8a6656f" x="207.879486" y="196.8217" style="fill: #ff0000; stroke: #ff0000"/>
     <use xlink:href="#mf1e8a6656f" x="215.5414" y="154.331066" style="fill: #ff0000; stroke: #ff0000"/>
     <use xlink:href="#mf1e8a6656f" x="255.001539" y="190.515108" style="fill: #ff0000; stroke: #ff0000"/>
     <use xlink:href="#mf1e8a6656f" x="188.049186" y="217.513059" style="fill: #ff0000; stroke: #ff0000"/>
     <use xlink:href="#mf1e8a6656f" x="267.435562" y="202.909715" style="fill: #ff0000; stroke: #ff0000"/>
     <use xlink:href="#mf1e8a6656f" x="143.838466" y="244.234074" style="fill: #ff0000; stroke: #ff0000"/>
     <use xlink:href="#mf1e8a6656f" x="177.106858" y="160.671988" style="fill: #ff0000; stroke: #ff0000"/>
     <use xlink:href="#mf1e8a6656f" x="198.446854" y="110.405884" style="fill: #ff0000; stroke: #ff0000"/>
     <use xlink:href="#mf1e8a6656f" x="233.100116" y="207.28558" style="fill: #ff0000; stroke: #ff0000"/>
     <use xlink:href="#mf1e8a6656f" x="183.540822" y="168.839839" style="fill: #ff0000; stroke: #ff0000"/>
     <use xlink:href="#mf1e8a6656f" x="192.387748" y="250.339052" style="fill: #ff0000; stroke: #ff0000"/>
     <use xlink:href="#mf1e8a6656f" x="229.085425" y="212.369281" style="fill: #ff0000; stroke: #ff0000"/>
     <use xlink:href="#mf1e8a6656f" x="257.25726" y="216.287101" style="fill: #ff0000; stroke: #ff0000"/>
     <use xlink:href="#mf1e8a6656f" x="73.563375" y="177.134158" style="fill: #ff0000; stroke: #ff0000"/>
     <use xlink:href="#mf1e8a6656f" x="118.114837" y="143.133947" style="fill: #ff0000; stroke: #ff0000"/>
     <use xlink:href="#mf1e8a6656f" x="285.945229" y="232.322774" style="fill: #ff0000; stroke: #ff0000"/>
     <use xlink:href="#mf1e8a6656f" x="150.465795" y="276.334125" style="fill: #ff0000; stroke: #ff0000"/>
     <use xlink:href="#mf1e8a6656f" x="242.901746" y="222.118342" style="fill: #ff0000; stroke: #ff0000"/>
     <use xlink:href="#mf1e8a6656f" x="176.161032" y="223.992214" style="fill: #ff0000; stroke: #ff0000"/>
     <use xlink:href="#mf1e8a6656f" x="298.065965" y="197.208218" style="fill: #ff0000; stroke: #ff0000"/>
     <use xlink:href="#mf1e8a6656f" x="237.14297" y="177.699421" style="fill: #ff0000; stroke: #ff0000"/>
     <use xlink:href="#mf1e8a6656f" x="249.51525" y="164.794052" style="fill: #ff0000; stroke: #ff0000"/>
     <use xlink:href="#mf1e8a6656f" x="171.0747" y="222.711318" style="fill: #ff0000; stroke: #ff0000"/>
     <use xlink:href="#mf1e8a6656f" x="168.792841" y="245.213987" style="fill: #ff0000; stroke: #ff0000"/>
     <use xlink:href="#mf1e8a6656f" x="255.099755" y="235.713049" style="fill: #ff0000; stroke: #ff0000"/>
     <use xlink:href="#mf1e8a6656f" x="199.717802" y="244.382033" style="fill: #ff0000; stroke: #ff0000"/>
     <use xlink:href="#mf1e8a6656f" x="176.385941" y="177.185357" style="fill: #ff0000; stroke: #ff0000"/>
     <use xlink:href="#mf1e8a6656f" x="183.099545" y="234.822182" style="fill: #ff0000; stroke: #ff0000"/>
     <use xlink:href="#mf1e8a6656f" x="225.701915" y="190.240756" style="fill: #ff0000; stroke: #ff0000"/>
    </g>
   </g>
   <g id="PathCollection_2">
    <defs>
     <path id="ma70dac5142" d="M 0 3 
C 0.795609 3 1.55874 2.683901 2.12132 2.12132 
C 2.683901 1.55874 3 0.795609 3 0 
C 3 -0.795609 2.683901 -1.55874 2.12132 -2.12132 
C 1.55874 -2.683901 0.795609 -3 0 -3 
C -0.795609 -3 -1.55874 -2.683901 -2.12132 -2.12132 
C -2.683901 -1.55874 -3 -0.795609 -3 0 
C -3 0.795609 -2.683901 1.55874 -2.12132 2.12132 
C -1.55874 2.683901 -0.795609 3 0 3 
z
" style="stroke: #0000ff"/>
    </defs>
    <g clip-path="url(#p1c5e06617d)">
     <use xlink:href="#ma70dac5142" x="303.4252" y="141.036836" style="fill: #0000ff; stroke: #0000ff"/>
     <use xlink:href="#ma70dac5142" x="187.904407" y="120.187623" style="fill: #0000ff; stroke: #0000ff"/>
     <use xlink:href="#ma70dac5142" x="290.082026" y="102.591064" style="fill: #0000ff; stroke: #0000ff"/>
     <use xlink:href="#ma70dac5142" x="229.067832" y="34.414125" style="fill: #0000ff; stroke: #0000ff"/>
     <use xlink:href="#ma70dac5142" x="211.558549" y="115.802253" style="fill: #0000ff; stroke: #0000ff"/>
     <use xlink:href="#ma70dac5142" x="269.557577" y="170.885977" style="fill: #0000ff; stroke: #0000ff"/>
     <use xlink:href="#ma70dac5142" x="304.500924" y="161.553144" style="fill: #0000ff; stroke: #0000ff"/>
     <use xlink:href="#ma70dac5142" x="161.504158" y="201.744555" style="fill: #0000ff; stroke: #0000ff"/>
     <use xlink:href="#ma70dac5142" x="288.236754" y="47.246818" style="fill: #0000ff; stroke: #0000ff"/>
     <use xlink:href="#ma70dac5142" x="200.267045" y="149.553328" style="fill: #0000ff; stroke: #0000ff"/>
     <use xlink:href="#ma70dac5142" x="333.293117" y="121.25048" style="fill: #0000ff; stroke: #0000ff"/>
     <use xlink:href="#ma70dac5142" x="250.430446" y="213.297984" style="fill: #0000ff; stroke: #0000ff"/>
     <use xlink:href="#ma70dac5142" x="186.660781" y="182.717394" style="fill: #0000ff; stroke: #0000ff"/>
     <use xlink:href="#ma70dac5142" x="250.757627" y="250.828197" style="fill: #0000ff; stroke: #0000ff"/>
     <use xlink:href="#ma70dac5142" x="190.629625" y="135.007817" style="fill: #0000ff; stroke: #0000ff"/>
     <use xlink:href="#ma70dac5142" x="248.916363" y="183.031576" style="fill: #0000ff; stroke: #0000ff"/>
     <use xlink:href="#ma70dac5142" x="248.983202" y="185.653728" style="fill: #0000ff; stroke: #0000ff"/>
     <use xlink:href="#ma70dac5142" x="309.554468" y="74.378921" style="fill: #0000ff; stroke: #0000ff"/>
     <use xlink:href="#ma70dac5142" x="361.553605" y="116.580603" style="fill: #0000ff; stroke: #0000ff"/>
     <use xlink:href="#ma70dac5142" x="301.371275" y="82.403089" style="fill: #0000ff; stroke: #0000ff"/>
     <use xlink:href="#ma70dac5142" x="346.346912" y="82.307384" style="fill: #0000ff; stroke: #0000ff"/>
     <use xlink:href="#ma70dac5142" x="322.474507" y="177.579032" style="fill: #0000ff; stroke: #0000ff"/>
     <use xlink:href="#ma70dac5142" x="194.893391" y="108.98762" style="fill: #0000ff; stroke: #0000ff"/>
     <use xlink:href="#ma70dac5142" x="263.215336" y="151.310334" style="fill: #0000ff; stroke: #0000ff"/>
     <use xlink:href="#ma70dac5142" x="227.119071" y="207.80937" style="fill: #0000ff; stroke: #0000ff"/>
     <use xlink:href="#ma70dac5142" x="331.08961" y="127.68263" style="fill: #0000ff; stroke: #0000ff"/>
     <use xlink:href="#ma70dac5142" x="219.151467" y="131.070919" style="fill: #0000ff; stroke: #0000ff"/>
     <use xlink:href="#ma70dac5142" x="281.337806" y="125.107921" style="fill: #0000ff; stroke: #0000ff"/>
     <use xlink:href="#ma70dac5142" x="368.79725" y="150.358963" style="fill: #0000ff; stroke: #0000ff"/>
     <use xlink:href="#ma70dac5142" x="209.415378" y="147.126551" style="fill: #0000ff; stroke: #0000ff"/>
     <use xlink:href="#ma70dac5142" x="238.147021" y="123.895695" style="fill: #0000ff; stroke: #0000ff"/>
     <use xlink:href="#ma70dac5142" x="277.024987" y="133.063541" style="fill: #0000ff; stroke: #0000ff"/>
     <use xlink:href="#ma70dac5142" x="241.74515" y="130.015682" style="fill: #0000ff; stroke: #0000ff"/>
     <use xlink:href="#ma70dac5142" x="244.321975" y="125.316178" style="fill: #0000ff; stroke: #0000ff"/>
     <use xlink:href="#ma70dac5142" x="253.815801" y="199.527205" style="fill: #0000ff; stroke: #0000ff"/>
     <use xlink:href="#ma70dac5142" x="290.090846" y="180.820365" style="fill: #0000ff; stroke: #0000ff"/>
     <use xlink:href="#ma70dac5142" x="332.982218" y="128.687348" style="fill: #0000ff; stroke: #0000ff"/>
     <use xlink:href="#ma70dac5142" x="288.692598" y="144.186443" style="fill: #0000ff; stroke: #0000ff"/>
     <use xlink:href="#ma70dac5142" x="264.779733" y="257.070258" style="fill: #0000ff; stroke: #0000ff"/>
     <use xlink:href="#ma70dac5142" x="322.923093" y="185.712131" style="fill: #0000ff; stroke: #0000ff"/>
     <use xlink:href="#ma70dac5142" x="310.858673" y="177.754074" style="fill: #0000ff; stroke: #0000ff"/>
     <use xlink:href="#ma70dac5142" x="260.978842" y="158.956122" style="fill: #0000ff; stroke: #0000ff"/>
     <use xlink:href="#ma70dac5142" x="220.355482" y="156.575041" style="fill: #0000ff; stroke: #0000ff"/>
     <use xlink:href="#ma70dac5142" x="289.084643" y="167.575998" style="fill: #0000ff; stroke: #0000ff"/>
     <use xlink:href="#ma70dac5142" x="210.120429" y="174.791605" style="fill: #0000ff; stroke: #0000ff"/>
     <use xlink:href="#ma70dac5142" x="278.806908" y="96.73534" style="fill: #0000ff; stroke: #0000ff"/>
     <use xlink:href="#ma70dac5142" x="305.399786" y="135.744853" style="fill: #0000ff; stroke: #0000ff"/>
     <use xlink:href="#ma70dac5142" x="222.301829" y="107.638452" style="fill: #0000ff; stroke: #0000ff"/>
     <use xlink:href="#ma70dac5142" x="268.571018" y="159.672609" style="fill: #0000ff; stroke: #0000ff"/>
     <use xlink:href="#ma70dac5142" x="308.764765" y="120.752565" style="fill: #0000ff; stroke: #0000ff"/>
    </g>
   </g>
   <g id="matplotlib.axis_1">
    <g id="xtick_1">
     <g id="line2d_1">
      <path d="M 42.899885 288.430125 
L 42.899885 22.318125 
" clip-path="url(#p1c5e06617d)" style="fill: none; stroke: #b0b0b0; stroke-width: 0.8; stroke-linecap: square"/>
     </g>
     <g id="line2d_2">
      <defs>
       <path id="mc3ed621b46" d="M 0 0 
L 0 3.5 
" style="stroke: #000000; stroke-width: 0.8"/>
      </defs>
      <g>
       <use xlink:href="#mc3ed621b46" x="42.899885" y="288.430125" style="stroke: #000000; stroke-width: 0.8"/>
      </g>
     </g>
     <g id="text_1">
      <!-- −6 -->
      <g transform="translate(35.528791 303.028562) scale(0.1 -0.1)">
       <defs>
        <path id="DejaVuSans-2212" d="M 678 2272 
L 4684 2272 
L 4684 1741 
L 678 1741 
L 678 2272 
z
" transform="scale(0.015625)"/>
        <path id="DejaVuSans-36" d="M 2113 2584 
Q 1688 2584 1439 2293 
Q 1191 2003 1191 1497 
Q 1191 994 1439 701 
Q 1688 409 2113 409 
Q 2538 409 2786 701 
Q 3034 994 3034 1497 
Q 3034 2003 2786 2293 
Q 2538 2584 2113 2584 
z
M 3366 4563 
L 3366 3988 
Q 3128 4100 2886 4159 
Q 2644 4219 2406 4219 
Q 1781 4219 1451 3797 
Q 1122 3375 1075 2522 
Q 1259 2794 1537 2939 
Q 1816 3084 2150 3084 
Q 2853 3084 3261 2657 
Q 3669 2231 3669 1497 
Q 3669 778 3244 343 
Q 2819 -91 2113 -91 
Q 1303 -91 875 529 
Q 447 1150 447 2328 
Q 447 3434 972 4092 
Q 1497 4750 2381 4750 
Q 2619 4750 2861 4703 
Q 3103 4656 3366 4563 
z
" transform="scale(0.015625)"/>
       </defs>
       <use xlink:href="#DejaVuSans-2212"/>
       <use xlink:href="#DejaVuSans-36" transform="translate(83.789062 0)"/>
      </g>
     </g>
    </g>
    <g id="xtick_2">
     <g id="line2d_3">
      <path d="M 107.063507 288.430125 
L 107.063507 22.318125 
" clip-path="url(#p1c5e06617d)" style="fill: none; stroke: #b0b0b0; stroke-width: 0.8; stroke-linecap: square"/>
     </g>
     <g id="line2d_4">
      <g>
       <use xlink:href="#mc3ed621b46" x="107.063507" y="288.430125" style="stroke: #000000; stroke-width: 0.8"/>
      </g>
     </g>
     <g id="text_2">
      <!-- −4 -->
      <g transform="translate(99.692414 303.028562) scale(0.1 -0.1)">
       <defs>
        <path id="DejaVuSans-34" d="M 2419 4116 
L 825 1625 
L 2419 1625 
L 2419 4116 
z
M 2253 4666 
L 3047 4666 
L 3047 1625 
L 3713 1625 
L 3713 1100 
L 3047 1100 
L 3047 0 
L 2419 0 
L 2419 1100 
L 313 1100 
L 313 1709 
L 2253 4666 
z
" transform="scale(0.015625)"/>
       </defs>
       <use xlink:href="#DejaVuSans-2212"/>
       <use xlink:href="#DejaVuSans-34" transform="translate(83.789062 0)"/>
      </g>
     </g>
    </g>
    <g id="xtick_3">
     <g id="line2d_5">
      <path d="M 171.22713 288.430125 
L 171.22713 22.318125 
" clip-path="url(#p1c5e06617d)" style="fill: none; stroke: #b0b0b0; stroke-width: 0.8; stroke-linecap: square"/>
     </g>
     <g id="line2d_6">
      <g>
       <use xlink:href="#mc3ed621b46" x="171.22713" y="288.430125" style="stroke: #000000; stroke-width: 0.8"/>
      </g>
     </g>
     <g id="text_3">
      <!-- −2 -->
      <g transform="translate(163.856036 303.028562) scale(0.1 -0.1)">
       <defs>
        <path id="DejaVuSans-32" d="M 1228 531 
L 3431 531 
L 3431 0 
L 469 0 
L 469 531 
Q 828 903 1448 1529 
Q 2069 2156 2228 2338 
Q 2531 2678 2651 2914 
Q 2772 3150 2772 3378 
Q 2772 3750 2511 3984 
Q 2250 4219 1831 4219 
Q 1534 4219 1204 4116 
Q 875 4013 500 3803 
L 500 4441 
Q 881 4594 1212 4672 
Q 1544 4750 1819 4750 
Q 2544 4750 2975 4387 
Q 3406 4025 3406 3419 
Q 3406 3131 3298 2873 
Q 3191 2616 2906 2266 
Q 2828 2175 2409 1742 
Q 1991 1309 1228 531 
z
" transform="scale(0.015625)"/>
       </defs>
       <use xlink:href="#DejaVuSans-2212"/>
       <use xlink:href="#DejaVuSans-32" transform="translate(83.789062 0)"/>
      </g>
     </g>
    </g>
    <g id="xtick_4">
     <g id="line2d_7">
      <path d="M 235.390752 288.430125 
L 235.390752 22.318125 
" clip-path="url(#p1c5e06617d)" style="fill: none; stroke: #b0b0b0; stroke-width: 0.8; stroke-linecap: square"/>
     </g>
     <g id="line2d_8">
      <g>
       <use xlink:href="#mc3ed621b46" x="235.390752" y="288.430125" style="stroke: #000000; stroke-width: 0.8"/>
      </g>
     </g>
     <g id="text_4">
      <!-- 0 -->
      <g transform="translate(232.209502 303.028562) scale(0.1 -0.1)">
       <defs>
        <path id="DejaVuSans-30" d="M 2034 4250 
Q 1547 4250 1301 3770 
Q 1056 3291 1056 2328 
Q 1056 1369 1301 889 
Q 1547 409 2034 409 
Q 2525 409 2770 889 
Q 3016 1369 3016 2328 
Q 3016 3291 2770 3770 
Q 2525 4250 2034 4250 
z
M 2034 4750 
Q 2819 4750 3233 4129 
Q 3647 3509 3647 2328 
Q 3647 1150 3233 529 
Q 2819 -91 2034 -91 
Q 1250 -91 836 529 
Q 422 1150 422 2328 
Q 422 3509 836 4129 
Q 1250 4750 2034 4750 
z
" transform="scale(0.015625)"/>
       </defs>
       <use xlink:href="#DejaVuSans-30"/>
      </g>
     </g>
    </g>
    <g id="xtick_5">
     <g id="line2d_9">
      <path d="M 299.554375 288.430125 
L 299.554375 22.318125 
" clip-path="url(#p1c5e06617d)" style="fill: none; stroke: #b0b0b0; stroke-width: 0.8; stroke-linecap: square"/>
     </g>
     <g id="line2d_10">
      <g>
       <use xlink:href="#mc3ed621b46" x="299.554375" y="288.430125" style="stroke: #000000; stroke-width: 0.8"/>
      </g>
     </g>
     <g id="text_5">
      <!-- 2 -->
      <g transform="translate(296.373125 303.028562) scale(0.1 -0.1)">
       <use xlink:href="#DejaVuSans-32"/>
      </g>
     </g>
    </g>
    <g id="xtick_6">
     <g id="line2d_11">
      <path d="M 363.717997 288.430125 
L 363.717997 22.318125 
" clip-path="url(#p1c5e06617d)" style="fill: none; stroke: #b0b0b0; stroke-width: 0.8; stroke-linecap: square"/>
     </g>
     <g id="line2d_12">
      <g>
       <use xlink:href="#mc3ed621b46" x="363.717997" y="288.430125" style="stroke: #000000; stroke-width: 0.8"/>
      </g>
     </g>
     <g id="text_6">
      <!-- 4 -->
      <g transform="translate(360.536747 303.028562) scale(0.1 -0.1)">
       <use xlink:href="#DejaVuSans-34"/>
      </g>
     </g>
    </g>
    <g id="text_7">
     <!-- X -->
     <g transform="translate(217.755313 316.706687) scale(0.1 -0.1)">
      <defs>
       <path id="DejaVuSans-58" d="M 403 4666 
L 1081 4666 
L 2241 2931 
L 3406 4666 
L 4084 4666 
L 2584 2425 
L 4184 0 
L 3506 0 
L 2194 1984 
L 872 0 
L 191 0 
L 1856 2491 
L 403 4666 
z
" transform="scale(0.015625)"/>
      </defs>
      <use xlink:href="#DejaVuSans-58"/>
     </g>
    </g>
   </g>
   <g id="matplotlib.axis_2">
    <g id="ytick_1">
     <g id="line2d_13">
      <path d="M 42.620313 277.111755 
L 399.740313 277.111755 
" clip-path="url(#p1c5e06617d)" style="fill: none; stroke: #b0b0b0; stroke-width: 0.8; stroke-linecap: square"/>
     </g>
     <g id="line2d_14">
      <defs>
       <path id="m7ce73c45b6" d="M 0 0 
L -3.5 0 
" style="stroke: #000000; stroke-width: 0.8"/>
      </defs>
      <g>
       <use xlink:href="#m7ce73c45b6" x="42.620313" y="277.111755" style="stroke: #000000; stroke-width: 0.8"/>
      </g>
     </g>
     <g id="text_8">
      <!-- −3 -->
      <g transform="translate(20.878125 280.910974) scale(0.1 -0.1)">
       <defs>
        <path id="DejaVuSans-33" d="M 2597 2516 
Q 3050 2419 3304 2112 
Q 3559 1806 3559 1356 
Q 3559 666 3084 287 
Q 2609 -91 1734 -91 
Q 1441 -91 1130 -33 
Q 819 25 488 141 
L 488 750 
Q 750 597 1062 519 
Q 1375 441 1716 441 
Q 2309 441 2620 675 
Q 2931 909 2931 1356 
Q 2931 1769 2642 2001 
Q 2353 2234 1838 2234 
L 1294 2234 
L 1294 2753 
L 1863 2753 
Q 2328 2753 2575 2939 
Q 2822 3125 2822 3475 
Q 2822 3834 2567 4026 
Q 2313 4219 1838 4219 
Q 1578 4219 1281 4162 
Q 984 4106 628 3988 
L 628 4550 
Q 988 4650 1302 4700 
Q 1616 4750 1894 4750 
Q 2613 4750 3031 4423 
Q 3450 4097 3450 3541 
Q 3450 3153 3228 2886 
Q 3006 2619 2597 2516 
z
" transform="scale(0.015625)"/>
       </defs>
       <use xlink:href="#DejaVuSans-2212"/>
       <use xlink:href="#DejaVuSans-33" transform="translate(83.789062 0)"/>
      </g>
     </g>
    </g>
    <g id="ytick_2">
     <g id="line2d_15">
      <path d="M 42.620313 245.029944 
L 399.740313 245.029944 
" clip-path="url(#p1c5e06617d)" style="fill: none; stroke: #b0b0b0; stroke-width: 0.8; stroke-linecap: square"/>
     </g>
     <g id="line2d_16">
      <g>
       <use xlink:href="#m7ce73c45b6" x="42.620313" y="245.029944" style="stroke: #000000; stroke-width: 0.8"/>
      </g>
     </g>
     <g id="text_9">
      <!-- −2 -->
      <g transform="translate(20.878125 248.829162) scale(0.1 -0.1)">
       <use xlink:href="#DejaVuSans-2212"/>
       <use xlink:href="#DejaVuSans-32" transform="translate(83.789062 0)"/>
      </g>
     </g>
    </g>
    <g id="ytick_3">
     <g id="line2d_17">
      <path d="M 42.620313 212.948132 
L 399.740313 212.948132 
" clip-path="url(#p1c5e06617d)" style="fill: none; stroke: #b0b0b0; stroke-width: 0.8; stroke-linecap: square"/>
     </g>
     <g id="line2d_18">
      <g>
       <use xlink:href="#m7ce73c45b6" x="42.620313" y="212.948132" style="stroke: #000000; stroke-width: 0.8"/>
      </g>
     </g>
     <g id="text_10">
      <!-- −1 -->
      <g transform="translate(20.878125 216.747351) scale(0.1 -0.1)">
       <defs>
        <path id="DejaVuSans-31" d="M 794 531 
L 1825 531 
L 1825 4091 
L 703 3866 
L 703 4441 
L 1819 4666 
L 2450 4666 
L 2450 531 
L 3481 531 
L 3481 0 
L 794 0 
L 794 531 
z
" transform="scale(0.015625)"/>
       </defs>
       <use xlink:href="#DejaVuSans-2212"/>
       <use xlink:href="#DejaVuSans-31" transform="translate(83.789062 0)"/>
      </g>
     </g>
    </g>
    <g id="ytick_4">
     <g id="line2d_19">
      <path d="M 42.620313 180.866321 
L 399.740313 180.866321 
" clip-path="url(#p1c5e06617d)" style="fill: none; stroke: #b0b0b0; stroke-width: 0.8; stroke-linecap: square"/>
     </g>
     <g id="line2d_20">
      <g>
       <use xlink:href="#m7ce73c45b6" x="42.620313" y="180.866321" style="stroke: #000000; stroke-width: 0.8"/>
      </g>
     </g>
     <g id="text_11">
      <!-- 0 -->
      <g transform="translate(29.257813 184.66554) scale(0.1 -0.1)">
       <use xlink:href="#DejaVuSans-30"/>
      </g>
     </g>
    </g>
    <g id="ytick_5">
     <g id="line2d_21">
      <path d="M 42.620313 148.78451 
L 399.740313 148.78451 
" clip-path="url(#p1c5e06617d)" style="fill: none; stroke: #b0b0b0; stroke-width: 0.8; stroke-linecap: square"/>
     </g>
     <g id="line2d_22">
      <g>
       <use xlink:href="#m7ce73c45b6" x="42.620313" y="148.78451" style="stroke: #000000; stroke-width: 0.8"/>
      </g>
     </g>
     <g id="text_12">
      <!-- 1 -->
      <g transform="translate(29.257813 152.583729) scale(0.1 -0.1)">
       <use xlink:href="#DejaVuSans-31"/>
      </g>
     </g>
    </g>
    <g id="ytick_6">
     <g id="line2d_23">
      <path d="M 42.620313 116.702699 
L 399.740313 116.702699 
" clip-path="url(#p1c5e06617d)" style="fill: none; stroke: #b0b0b0; stroke-width: 0.8; stroke-linecap: square"/>
     </g>
     <g id="line2d_24">
      <g>
       <use xlink:href="#m7ce73c45b6" x="42.620313" y="116.702699" style="stroke: #000000; stroke-width: 0.8"/>
      </g>
     </g>
     <g id="text_13">
      <!-- 2 -->
      <g transform="translate(29.257813 120.501917) scale(0.1 -0.1)">
       <use xlink:href="#DejaVuSans-32"/>
      </g>
     </g>
    </g>
    <g id="ytick_7">
     <g id="line2d_25">
      <path d="M 42.620313 84.620887 
L 399.740313 84.620887 
" clip-path="url(#p1c5e06617d)" style="fill: none; stroke: #b0b0b0; stroke-width: 0.8; stroke-linecap: square"/>
     </g>
     <g id="line2d_26">
      <g>
       <use xlink:href="#m7ce73c45b6" x="42.620313" y="84.620887" style="stroke: #000000; stroke-width: 0.8"/>
      </g>
     </g>
     <g id="text_14">
      <!-- 3 -->
      <g transform="translate(29.257813 88.420106) scale(0.1 -0.1)">
       <use xlink:href="#DejaVuSans-33"/>
      </g>
     </g>
    </g>
    <g id="ytick_8">
     <g id="line2d_27">
      <path d="M 42.620313 52.539076 
L 399.740313 52.539076 
" clip-path="url(#p1c5e06617d)" style="fill: none; stroke: #b0b0b0; stroke-width: 0.8; stroke-linecap: square"/>
     </g>
     <g id="line2d_28">
      <g>
       <use xlink:href="#m7ce73c45b6" x="42.620313" y="52.539076" style="stroke: #000000; stroke-width: 0.8"/>
      </g>
     </g>
     <g id="text_15">
      <!-- 4 -->
      <g transform="translate(29.257813 56.338295) scale(0.1 -0.1)">
       <use xlink:href="#DejaVuSans-34"/>
      </g>
     </g>
    </g>
    <g id="text_16">
     <!-- Y -->
     <g transform="translate(14.798438 158.428031) rotate(-90) scale(0.1 -0.1)">
      <defs>
       <path id="DejaVuSans-59" d="M -13 4666 
L 666 4666 
L 1959 2747 
L 3244 4666 
L 3922 4666 
L 2272 2222 
L 2272 0 
L 1638 0 
L 1638 2222 
L -13 4666 
z
" transform="scale(0.015625)"/>
      </defs>
      <use xlink:href="#DejaVuSans-59"/>
     </g>
    </g>
   </g>
   <g id="patch_3">
    <path d="M 42.620313 288.430125 
L 42.620313 22.318125 
" style="fill: none; stroke: #000000; stroke-width: 0.8; stroke-linejoin: miter; stroke-linecap: square"/>
   </g>
   <g id="patch_4">
    <path d="M 399.740313 288.430125 
L 399.740313 22.318125 
" style="fill: none; stroke: #000000; stroke-width: 0.8; stroke-linejoin: miter; stroke-linecap: square"/>
   </g>
   <g id="patch_5">
    <path d="M 42.620312 288.430125 
L 399.740313 288.430125 
" style="fill: none; stroke: #000000; stroke-width: 0.8; stroke-linejoin: miter; stroke-linecap: square"/>
   </g>
   <g id="patch_6">
    <path d="M 42.620312 22.318125 
L 399.740313 22.318125 
" style="fill: none; stroke: #000000; stroke-width: 0.8; stroke-linejoin: miter; stroke-linecap: square"/>
   </g>
   <g id="text_17">
    <!-- Two Sets of 2D Circles with Gaussian Distribution -->
    <g transform="translate(74.15125 16.318125) scale(0.12 -0.12)">
     <defs>
      <path id="DejaVuSans-54" d="M -19 4666 
L 3928 4666 
L 3928 4134 
L 2272 4134 
L 2272 0 
L 1638 0 
L 1638 4134 
L -19 4134 
L -19 4666 
z
" transform="scale(0.015625)"/>
      <path id="DejaVuSans-77" d="M 269 3500 
L 844 3500 
L 1563 769 
L 2278 3500 
L 2956 3500 
L 3675 769 
L 4391 3500 
L 4966 3500 
L 4050 0 
L 3372 0 
L 2619 2869 
L 1863 0 
L 1184 0 
L 269 3500 
z
" transform="scale(0.015625)"/>
      <path id="DejaVuSans-6f" d="M 1959 3097 
Q 1497 3097 1228 2736 
Q 959 2375 959 1747 
Q 959 1119 1226 758 
Q 1494 397 1959 397 
Q 2419 397 2687 759 
Q 2956 1122 2956 1747 
Q 2956 2369 2687 2733 
Q 2419 3097 1959 3097 
z
M 1959 3584 
Q 2709 3584 3137 3096 
Q 3566 2609 3566 1747 
Q 3566 888 3137 398 
Q 2709 -91 1959 -91 
Q 1206 -91 779 398 
Q 353 888 353 1747 
Q 353 2609 779 3096 
Q 1206 3584 1959 3584 
z
" transform="scale(0.015625)"/>
      <path id="DejaVuSans-20" transform="scale(0.015625)"/>
      <path id="DejaVuSans-53" d="M 3425 4513 
L 3425 3897 
Q 3066 4069 2747 4153 
Q 2428 4238 2131 4238 
Q 1616 4238 1336 4038 
Q 1056 3838 1056 3469 
Q 1056 3159 1242 3001 
Q 1428 2844 1947 2747 
L 2328 2669 
Q 3034 2534 3370 2195 
Q 3706 1856 3706 1288 
Q 3706 609 3251 259 
Q 2797 -91 1919 -91 
Q 1588 -91 1214 -16 
Q 841 59 441 206 
L 441 856 
Q 825 641 1194 531 
Q 1563 422 1919 422 
Q 2459 422 2753 634 
Q 3047 847 3047 1241 
Q 3047 1584 2836 1778 
Q 2625 1972 2144 2069 
L 1759 2144 
Q 1053 2284 737 2584 
Q 422 2884 422 3419 
Q 422 4038 858 4394 
Q 1294 4750 2059 4750 
Q 2388 4750 2728 4690 
Q 3069 4631 3425 4513 
z
" transform="scale(0.015625)"/>
      <path id="DejaVuSans-65" d="M 3597 1894 
L 3597 1613 
L 953 1613 
Q 991 1019 1311 708 
Q 1631 397 2203 397 
Q 2534 397 2845 478 
Q 3156 559 3463 722 
L 3463 178 
Q 3153 47 2828 -22 
Q 2503 -91 2169 -91 
Q 1331 -91 842 396 
Q 353 884 353 1716 
Q 353 2575 817 3079 
Q 1281 3584 2069 3584 
Q 2775 3584 3186 3129 
Q 3597 2675 3597 1894 
z
M 3022 2063 
Q 3016 2534 2758 2815 
Q 2500 3097 2075 3097 
Q 1594 3097 1305 2825 
Q 1016 2553 972 2059 
L 3022 2063 
z
" transform="scale(0.015625)"/>
      <path id="DejaVuSans-74" d="M 1172 4494 
L 1172 3500 
L 2356 3500 
L 2356 3053 
L 1172 3053 
L 1172 1153 
Q 1172 725 1289 603 
Q 1406 481 1766 481 
L 2356 481 
L 2356 0 
L 1766 0 
Q 1100 0 847 248 
Q 594 497 594 1153 
L 594 3053 
L 172 3053 
L 172 3500 
L 594 3500 
L 594 4494 
L 1172 4494 
z
" transform="scale(0.015625)"/>
      <path id="DejaVuSans-73" d="M 2834 3397 
L 2834 2853 
Q 2591 2978 2328 3040 
Q 2066 3103 1784 3103 
Q 1356 3103 1142 2972 
Q 928 2841 928 2578 
Q 928 2378 1081 2264 
Q 1234 2150 1697 2047 
L 1894 2003 
Q 2506 1872 2764 1633 
Q 3022 1394 3022 966 
Q 3022 478 2636 193 
Q 2250 -91 1575 -91 
Q 1294 -91 989 -36 
Q 684 19 347 128 
L 347 722 
Q 666 556 975 473 
Q 1284 391 1588 391 
Q 1994 391 2212 530 
Q 2431 669 2431 922 
Q 2431 1156 2273 1281 
Q 2116 1406 1581 1522 
L 1381 1569 
Q 847 1681 609 1914 
Q 372 2147 372 2553 
Q 372 3047 722 3315 
Q 1072 3584 1716 3584 
Q 2034 3584 2315 3537 
Q 2597 3491 2834 3397 
z
" transform="scale(0.015625)"/>
      <path id="DejaVuSans-66" d="M 2375 4863 
L 2375 4384 
L 1825 4384 
Q 1516 4384 1395 4259 
Q 1275 4134 1275 3809 
L 1275 3500 
L 2222 3500 
L 2222 3053 
L 1275 3053 
L 1275 0 
L 697 0 
L 697 3053 
L 147 3053 
L 147 3500 
L 697 3500 
L 697 3744 
Q 697 4328 969 4595 
Q 1241 4863 1831 4863 
L 2375 4863 
z
" transform="scale(0.015625)"/>
      <path id="DejaVuSans-44" d="M 1259 4147 
L 1259 519 
L 2022 519 
Q 2988 519 3436 956 
Q 3884 1394 3884 2338 
Q 3884 3275 3436 3711 
Q 2988 4147 2022 4147 
L 1259 4147 
z
M 628 4666 
L 1925 4666 
Q 3281 4666 3915 4102 
Q 4550 3538 4550 2338 
Q 4550 1131 3912 565 
Q 3275 0 1925 0 
L 628 0 
L 628 4666 
z
" transform="scale(0.015625)"/>
      <path id="DejaVuSans-43" d="M 4122 4306 
L 4122 3641 
Q 3803 3938 3442 4084 
Q 3081 4231 2675 4231 
Q 1875 4231 1450 3742 
Q 1025 3253 1025 2328 
Q 1025 1406 1450 917 
Q 1875 428 2675 428 
Q 3081 428 3442 575 
Q 3803 722 4122 1019 
L 4122 359 
Q 3791 134 3420 21 
Q 3050 -91 2638 -91 
Q 1578 -91 968 557 
Q 359 1206 359 2328 
Q 359 3453 968 4101 
Q 1578 4750 2638 4750 
Q 3056 4750 3426 4639 
Q 3797 4528 4122 4306 
z
" transform="scale(0.015625)"/>
      <path id="DejaVuSans-69" d="M 603 3500 
L 1178 3500 
L 1178 0 
L 603 0 
L 603 3500 
z
M 603 4863 
L 1178 4863 
L 1178 4134 
L 603 4134 
L 603 4863 
z
" transform="scale(0.015625)"/>
      <path id="DejaVuSans-72" d="M 2631 2963 
Q 2534 3019 2420 3045 
Q 2306 3072 2169 3072 
Q 1681 3072 1420 2755 
Q 1159 2438 1159 1844 
L 1159 0 
L 581 0 
L 581 3500 
L 1159 3500 
L 1159 2956 
Q 1341 3275 1631 3429 
Q 1922 3584 2338 3584 
Q 2397 3584 2469 3576 
Q 2541 3569 2628 3553 
L 2631 2963 
z
" transform="scale(0.015625)"/>
      <path id="DejaVuSans-63" d="M 3122 3366 
L 3122 2828 
Q 2878 2963 2633 3030 
Q 2388 3097 2138 3097 
Q 1578 3097 1268 2742 
Q 959 2388 959 1747 
Q 959 1106 1268 751 
Q 1578 397 2138 397 
Q 2388 397 2633 464 
Q 2878 531 3122 666 
L 3122 134 
Q 2881 22 2623 -34 
Q 2366 -91 2075 -91 
Q 1284 -91 818 406 
Q 353 903 353 1747 
Q 353 2603 823 3093 
Q 1294 3584 2113 3584 
Q 2378 3584 2631 3529 
Q 2884 3475 3122 3366 
z
" transform="scale(0.015625)"/>
      <path id="DejaVuSans-6c" d="M 603 4863 
L 1178 4863 
L 1178 0 
L 603 0 
L 603 4863 
z
" transform="scale(0.015625)"/>
      <path id="DejaVuSans-68" d="M 3513 2113 
L 3513 0 
L 2938 0 
L 2938 2094 
Q 2938 2591 2744 2837 
Q 2550 3084 2163 3084 
Q 1697 3084 1428 2787 
Q 1159 2491 1159 1978 
L 1159 0 
L 581 0 
L 581 4863 
L 1159 4863 
L 1159 2956 
Q 1366 3272 1645 3428 
Q 1925 3584 2291 3584 
Q 2894 3584 3203 3211 
Q 3513 2838 3513 2113 
z
" transform="scale(0.015625)"/>
      <path id="DejaVuSans-47" d="M 3809 666 
L 3809 1919 
L 2778 1919 
L 2778 2438 
L 4434 2438 
L 4434 434 
Q 4069 175 3628 42 
Q 3188 -91 2688 -91 
Q 1594 -91 976 548 
Q 359 1188 359 2328 
Q 359 3472 976 4111 
Q 1594 4750 2688 4750 
Q 3144 4750 3555 4637 
Q 3966 4525 4313 4306 
L 4313 3634 
Q 3963 3931 3569 4081 
Q 3175 4231 2741 4231 
Q 1884 4231 1454 3753 
Q 1025 3275 1025 2328 
Q 1025 1384 1454 906 
Q 1884 428 2741 428 
Q 3075 428 3337 486 
Q 3600 544 3809 666 
z
" transform="scale(0.015625)"/>
      <path id="DejaVuSans-61" d="M 2194 1759 
Q 1497 1759 1228 1600 
Q 959 1441 959 1056 
Q 959 750 1161 570 
Q 1363 391 1709 391 
Q 2188 391 2477 730 
Q 2766 1069 2766 1631 
L 2766 1759 
L 2194 1759 
z
M 3341 1997 
L 3341 0 
L 2766 0 
L 2766 531 
Q 2569 213 2275 61 
Q 1981 -91 1556 -91 
Q 1019 -91 701 211 
Q 384 513 384 1019 
Q 384 1609 779 1909 
Q 1175 2209 1959 2209 
L 2766 2209 
L 2766 2266 
Q 2766 2663 2505 2880 
Q 2244 3097 1772 3097 
Q 1472 3097 1187 3025 
Q 903 2953 641 2809 
L 641 3341 
Q 956 3463 1253 3523 
Q 1550 3584 1831 3584 
Q 2591 3584 2966 3190 
Q 3341 2797 3341 1997 
z
" transform="scale(0.015625)"/>
      <path id="DejaVuSans-75" d="M 544 1381 
L 544 3500 
L 1119 3500 
L 1119 1403 
Q 1119 906 1312 657 
Q 1506 409 1894 409 
Q 2359 409 2629 706 
Q 2900 1003 2900 1516 
L 2900 3500 
L 3475 3500 
L 3475 0 
L 2900 0 
L 2900 538 
Q 2691 219 2414 64 
Q 2138 -91 1772 -91 
Q 1169 -91 856 284 
Q 544 659 544 1381 
z
M 1991 3584 
L 1991 3584 
z
" transform="scale(0.015625)"/>
      <path id="DejaVuSans-6e" d="M 3513 2113 
L 3513 0 
L 2938 0 
L 2938 2094 
Q 2938 2591 2744 2837 
Q 2550 3084 2163 3084 
Q 1697 3084 1428 2787 
Q 1159 2491 1159 1978 
L 1159 0 
L 581 0 
L 581 3500 
L 1159 3500 
L 1159 2956 
Q 1366 3272 1645 3428 
Q 1925 3584 2291 3584 
Q 2894 3584 3203 3211 
Q 3513 2838 3513 2113 
z
" transform="scale(0.015625)"/>
      <path id="DejaVuSans-62" d="M 3116 1747 
Q 3116 2381 2855 2742 
Q 2594 3103 2138 3103 
Q 1681 3103 1420 2742 
Q 1159 2381 1159 1747 
Q 1159 1113 1420 752 
Q 1681 391 2138 391 
Q 2594 391 2855 752 
Q 3116 1113 3116 1747 
z
M 1159 2969 
Q 1341 3281 1617 3432 
Q 1894 3584 2278 3584 
Q 2916 3584 3314 3078 
Q 3713 2572 3713 1747 
Q 3713 922 3314 415 
Q 2916 -91 2278 -91 
Q 1894 -91 1617 61 
Q 1341 213 1159 525 
L 1159 0 
L 581 0 
L 581 4863 
L 1159 4863 
L 1159 2969 
z
" transform="scale(0.015625)"/>
     </defs>
     <use xlink:href="#DejaVuSans-54"/>
     <use xlink:href="#DejaVuSans-77" transform="translate(44.583984 0)"/>
     <use xlink:href="#DejaVuSans-6f" transform="translate(126.371094 0)"/>
     <use xlink:href="#DejaVuSans-20" transform="translate(187.552734 0)"/>
     <use xlink:href="#DejaVuSans-53" transform="translate(219.339844 0)"/>
     <use xlink:href="#DejaVuSans-65" transform="translate(282.816406 0)"/>
     <use xlink:href="#DejaVuSans-74" transform="translate(344.339844 0)"/>
     <use xlink:href="#DejaVuSans-73" transform="translate(383.548828 0)"/>
     <use xlink:href="#DejaVuSans-20" transform="translate(435.648438 0)"/>
     <use xlink:href="#DejaVuSans-6f" transform="translate(467.435547 0)"/>
     <use xlink:href="#DejaVuSans-66" transform="translate(528.617188 0)"/>
     <use xlink:href="#DejaVuSans-20" transform="translate(563.822266 0)"/>
     <use xlink:href="#DejaVuSans-32" transform="translate(595.609375 0)"/>
     <use xlink:href="#DejaVuSans-44" transform="translate(659.232422 0)"/>
     <use xlink:href="#DejaVuSans-20" transform="translate(736.234375 0)"/>
     <use xlink:href="#DejaVuSans-43" transform="translate(768.021484 0)"/>
     <use xlink:href="#DejaVuSans-69" transform="translate(837.845703 0)"/>
     <use xlink:href="#DejaVuSans-72" transform="translate(865.628906 0)"/>
     <use xlink:href="#DejaVuSans-63" transform="translate(904.492188 0)"/>
     <use xlink:href="#DejaVuSans-6c" transform="translate(959.472656 0)"/>
     <use xlink:href="#DejaVuSans-65" transform="translate(987.255859 0)"/>
     <use xlink:href="#DejaVuSans-73" transform="translate(1048.779297 0)"/>
     <use xlink:href="#DejaVuSans-20" transform="translate(1100.878906 0)"/>
     <use xlink:href="#DejaVuSans-77" transform="translate(1132.666016 0)"/>
     <use xlink:href="#DejaVuSans-69" transform="translate(1214.453125 0)"/>
     <use xlink:href="#DejaVuSans-74" transform="translate(1242.236328 0)"/>
     <use xlink:href="#DejaVuSans-68" transform="translate(1281.445312 0)"/>
     <use xlink:href="#DejaVuSans-20" transform="translate(1344.824219 0)"/>
     <use xlink:href="#DejaVuSans-47" transform="translate(1376.611328 0)"/>
     <use xlink:href="#DejaVuSans-61" transform="translate(1454.101562 0)"/>
     <use xlink:href="#DejaVuSans-75" transform="translate(1515.380859 0)"/>
     <use xlink:href="#DejaVuSans-73" transform="translate(1578.759766 0)"/>
     <use xlink:href="#DejaVuSans-73" transform="translate(1630.859375 0)"/>
     <use xlink:href="#DejaVuSans-69" transform="translate(1682.958984 0)"/>
     <use xlink:href="#DejaVuSans-61" transform="translate(1710.742188 0)"/>
     <use xlink:href="#DejaVuSans-6e" transform="translate(1772.021484 0)"/>
     <use xlink:href="#DejaVuSans-20" transform="translate(1835.400391 0)"/>
     <use xlink:href="#DejaVuSans-44" transform="translate(1867.1875 0)"/>
     <use xlink:href="#DejaVuSans-69" transform="translate(1944.189453 0)"/>
     <use xlink:href="#DejaVuSans-73" transform="translate(1971.972656 0)"/>
     <use xlink:href="#DejaVuSans-74" transform="translate(2024.072266 0)"/>
     <use xlink:href="#DejaVuSans-72" transform="translate(2063.28125 0)"/>
     <use xlink:href="#DejaVuSans-69" transform="translate(2104.394531 0)"/>
     <use xlink:href="#DejaVuSans-62" transform="translate(2132.177734 0)"/>
     <use xlink:href="#DejaVuSans-75" transform="translate(2195.654297 0)"/>
     <use xlink:href="#DejaVuSans-74" transform="translate(2259.033203 0)"/>
     <use xlink:href="#DejaVuSans-69" transform="translate(2298.242188 0)"/>
     <use xlink:href="#DejaVuSans-6f" transform="translate(2326.025391 0)"/>
     <use xlink:href="#DejaVuSans-6e" transform="translate(2387.207031 0)"/>
    </g>
   </g>
   <g id="legend_1">
    <g id="patch_7">
     <path d="M 303.523125 59.674375 
L 392.740312 59.674375 
Q 394.740312 59.674375 394.740312 57.674375 
L 394.740312 29.318125 
Q 394.740312 27.318125 392.740312 27.318125 
L 303.523125 27.318125 
Q 301.523125 27.318125 301.523125 29.318125 
L 301.523125 57.674375 
Q 301.523125 59.674375 303.523125 59.674375 
z
" style="fill: #ffffff; opacity: 0.8; stroke: #cccccc; stroke-linejoin: miter"/>
    </g>
    <g id="PathCollection_3">
     <g>
      <use xlink:href="#mf1e8a6656f" x="315.523125" y="36.291562" style="fill: #ff0000; stroke: #ff0000"/>
     </g>
    </g>
    <g id="text_18">
     <!-- Circle Set 1 -->
     <g transform="translate(333.523125 38.916562) scale(0.1 -0.1)">
      <use xlink:href="#DejaVuSans-43"/>
      <use xlink:href="#DejaVuSans-69" transform="translate(69.824219 0)"/>
      <use xlink:href="#DejaVuSans-72" transform="translate(97.607422 0)"/>
      <use xlink:href="#DejaVuSans-63" transform="translate(136.470703 0)"/>
      <use xlink:href="#DejaVuSans-6c" transform="translate(191.451172 0)"/>
      <use xlink:href="#DejaVuSans-65" transform="translate(219.234375 0)"/>
      <use xlink:href="#DejaVuSans-20" transform="translate(280.757812 0)"/>
      <use xlink:href="#DejaVuSans-53" transform="translate(312.544922 0)"/>
      <use xlink:href="#DejaVuSans-65" transform="translate(376.021484 0)"/>
      <use xlink:href="#DejaVuSans-74" transform="translate(437.544922 0)"/>
      <use xlink:href="#DejaVuSans-20" transform="translate(476.753906 0)"/>
      <use xlink:href="#DejaVuSans-31" transform="translate(508.541016 0)"/>
     </g>
    </g>
    <g id="PathCollection_4">
     <g>
      <use xlink:href="#ma70dac5142" x="315.523125" y="50.969687" style="fill: #0000ff; stroke: #0000ff"/>
     </g>
    </g>
    <g id="text_19">
     <!-- Circle Set 2 -->
     <g transform="translate(333.523125 53.594687) scale(0.1 -0.1)">
      <use xlink:href="#DejaVuSans-43"/>
      <use xlink:href="#DejaVuSans-69" transform="translate(69.824219 0)"/>
      <use xlink:href="#DejaVuSans-72" transform="translate(97.607422 0)"/>
      <use xlink:href="#DejaVuSans-63" transform="translate(136.470703 0)"/>
      <use xlink:href="#DejaVuSans-6c" transform="translate(191.451172 0)"/>
      <use xlink:href="#DejaVuSans-65" transform="translate(219.234375 0)"/>
      <use xlink:href="#DejaVuSans-20" transform="translate(280.757812 0)"/>
      <use xlink:href="#DejaVuSans-53" transform="translate(312.544922 0)"/>
      <use xlink:href="#DejaVuSans-65" transform="translate(376.021484 0)"/>
      <use xlink:href="#DejaVuSans-74" transform="translate(437.544922 0)"/>
      <use xlink:href="#DejaVuSans-20" transform="translate(476.753906 0)"/>
      <use xlink:href="#DejaVuSans-32" transform="translate(508.541016 0)"/>
     </g>
    </g>
   </g>
  </g>
 </g>
 <defs>
  <clipPath id="p1c5e06617d">
   <rect x="42.620313" y="22.318125" width="357.12" height="266.112"/>
  </clipPath>
 </defs>
</svg>
